<svg xmlns="http://www.w3.org/2000/svg" width="8.01in" height="1.44in" viewBox="0 0 576.74 103.9"><title>birkmanlogo</title><path d="M122.72,87.26h16.44c12.42,0,24.47-5.61,24.47-19.71,0-8.22-5.79-16.35-14.11-17.84v-.19c4.77-2.24,7.57-8.22,7.57-13.36,0-15.87-12.52-19.33-25.78-19.33h-8.59V87.26M131.5,55h5.41c7.85,0,17.94,2.06,17.94,12s-8.5,12.42-16.63,12.42H131.5Zm0-30.35h2.43c8.21,0,14.94,1.68,14.94,11.58,0,10.09-6.82,11.77-15.13,11.77H131.5Z" fill="#59595d"/><rect x="182.49" y="16.83" width="8.78" height="70.43" fill="#59595d"/><path d="M235.36,56.62c10.18-1.21,16.91-9.62,16.91-19.71A19.52,19.52,0,0,0,243,20.1c-5.61-3.18-12.33-3.27-18.59-3.27H213.78V87.26h8.78V57.46h3.65l20.73,29.8h10.65L235.36,56.62m-12.8-31.94h2.34c8.69,0,19.15,1.59,19.15,12.61,0,11.2-9.72,12.89-18.68,12.89h-2.81Z" fill="#59595d"/><polyline points="312.51 16.83 324 16.83 292.33 48.5 324.56 87.26 312.7 87.26 286.17 54.47 282.62 57.84 282.62 87.26 273.84 87.26 273.84 16.83 282.62 16.83 282.62 47.38 312.51 16.83" fill="#59595d"/><polyline points="351.18 40.74 350.99 40.74 342.77 87.26 333.71 87.26 348.1 13.84 372.29 69.32 396.48 13.84 410.87 87.26 401.8 87.26 393.58 40.74 393.4 40.74 372.29 88.75 351.18 40.74" fill="#59595d"/><path d="M470.36,69.61l8,17.65h9.43L454.2,13.84,420.58,87.26H430l8-17.65h32.31m-3.64-8h-25L454.2,33.08Z" fill="#59595d"/><polyline points="502.21 13.47 555.08 68.86 555.08 16.83 563.86 16.83 563.86 90.16 510.99 34.77 510.99 87.26 502.21 87.26 502.21 13.47" fill="#59595d"/><path d="M20,51.81A49,49,0,0,0,35.07,61.3a55,55,0,0,1-1-9.49,54.85,54.85,0,0,1,1-9.48A49,49,0,0,0,20,51.81" fill="#286b3b"/><path d="M72.25,51.81a54,54,0,0,1-1,9.49,49,49,0,0,0,15.06-9.49,48.94,48.94,0,0,0-15.06-9.48,53.89,53.89,0,0,1,1,9.48" fill="#e5952c"/><path d="M44.69,33.7a55,55,0,0,1,9.49-1,55,55,0,0,1,9.49,1,49.15,49.15,0,0,0-9.49-15.06A49,49,0,0,0,44.69,33.7" fill="#1e5197"/><path d="M53.18,85a49.2,49.2,0,0,0,9.49-15.07,54,54,0,0,1-9.49,1,54,54,0,0,1-9.49-1A49,49,0,0,0,53.18,85" fill="#a82e23"/><path d="M64.74,40.25a49,49,0,0,0-11.56-1.51,49,49,0,0,0-11.56,1.51L53.18,51.81,64.74,40.25" fill="#a82e23"/><path d="M53.18,51.81,41.62,63.37h0a49,49,0,0,0,11.56,1.51,49,49,0,0,0,11.56-1.51L53.18,51.81" fill="#1e5197"/><path d="M64.74,63.37a48.49,48.49,0,0,0,1.51-11.56,49,49,0,0,0-1.51-11.56L53.18,51.81,64.74,63.37" fill="#286b3b"/><path d="M41.62,40.25a49,49,0,0,0-1.5,11.56,49.52,49.52,0,0,0,1.5,11.56L53.18,51.81,41.62,40.25" fill="#e5952c"/><path d="M48.81,14.53A55.18,55.18,0,0,0,36.76,35.37,55.06,55.06,0,0,0,15.92,47.46,48.81,48.81,0,0,1,4,15.66,48.21,48.21,0,0,1,5.48,4.13h0A50.22,50.22,0,0,1,17.05,2.62,49,49,0,0,1,48.81,14.53Z" fill="#a82e23"/><path d="M102.4,88a48.11,48.11,0,0,1-1.52,11.52h0A48,48,0,0,1,89.32,101,48.9,48.9,0,0,1,57.56,89.09a54.93,54.93,0,0,0,12-20.84A55,55,0,0,0,90.44,56.17,48.75,48.75,0,0,1,102.4,88Z" fill="#1e5197"/><polygon points="100.89 99.49 100.89 99.53 100.84 99.49 100.89 99.49" fill="#005ea2"/><path d="M48.81,89.09A49,49,0,0,1,17.05,101,46.57,46.57,0,0,1,5.66,99.53H5.48A47.71,47.71,0,0,1,4,88,48.8,48.8,0,0,1,16,56.2a54.71,54.71,0,0,0,20.76,12,.13.13,0,0,0,.05.13A54.68,54.68,0,0,0,48.81,89.09Z" fill="#e5952c"/><path d="M102.4,15.66a48.8,48.8,0,0,1-12,31.8A55.74,55.74,0,0,0,69.78,35.41H69.6a54.93,54.93,0,0,0-12-20.84,47.45,47.45,0,0,1,43.32-10.4.44.44,0,0,1,0,.13A48.9,48.9,0,0,1,102.4,15.66Z" fill="#286b3b"/></svg>