<svg xmlns="http://www.w3.org/2000/svg" width="50" height="50" viewBox="0 0 50 50"><defs><style>.a{fill:#3c3c3b;}.b{fill:#1977f3;opacity:0;}</style></defs><g transform="translate(-1135.11 -2503.507)"><path class="a" d="M4555.687,697a25,25,0,1,0,25,25A25,25,0,0,0,4555.687,697Zm8.024,14.51c-.922-.006-1.845-.018-2.767,0a6.573,6.573,0,0,0-1.252.145,1.752,1.752,0,0,0-1.414,1.48,5.234,5.234,0,0,0-.1.963c-.012,1.18-.005,2.36,0,3.54,0,.035,0,.07.007.124h5.3c.222,0,.226,0,.2.211-.12.928-.245,1.855-.364,2.783q-.15,1.163-.29,2.327c-.035.3-.028.3-.326.3h-4.529v14.027c0,.113,0,.227,0,.34h-5.843c0-.077.008-.154.008-.231q0-6.979,0-13.957v-.178h-4.651c-.206,0-.207,0-.207-.2,0-1.741,0-3.483,0-5.224,0-.159.048-.2.2-.2,1.483.005,2.968,0,4.451,0h.208V717.6c0-1.448-.009-2.9.012-4.343a7.906,7.906,0,0,1,.75-3.349,6.073,6.073,0,0,1,3.245-3.072,7.644,7.644,0,0,1,3.074-.583c1.215.018,2.43.073,3.644.116.226.008.451.047.676.058.126.006.168.053.168.179,0,.721,0,1.443,0,2.164,0,.85,0,1.7,0,2.55C4563.9,711.467,4563.859,711.512,4563.71,711.511Z" transform="translate(-3395.576 1806.506)"/><path class="b" d="M1160.11,2503.507a25,25,0,1,0,25,25A25,25,0,0,0,1160.11,2503.507Zm8.024,14.511c-.922-.007-1.845-.018-2.767,0a6.587,6.587,0,0,0-1.252.145,1.753,1.753,0,0,0-1.414,1.48,5.182,5.182,0,0,0-.1.963c-.012,1.18-.005,2.36-.005,3.539,0,.036.005.071.008.125h5.3c.223,0,.226,0,.2.212-.121.927-.245,1.854-.364,2.782q-.15,1.162-.29,2.327c-.035.3-.028.3-.326.3h-4.529v14.026c0,.114,0,.227,0,.34h-5.843c0-.077.008-.154.008-.231q0-6.979,0-13.957v-.178H1152.1c-.206,0-.207,0-.207-.2,0-1.741,0-3.483,0-5.224,0-.159.047-.2.2-.2,1.483.006,2.967,0,4.451,0h.208v-.168c0-1.448-.009-2.9.012-4.344a7.9,7.9,0,0,1,.75-3.348,6.073,6.073,0,0,1,3.244-3.072,7.656,7.656,0,0,1,3.074-.583c1.215.018,2.429.073,3.644.116.226.009.451.047.677.058.125.007.168.054.167.179-.005.722,0,1.443,0,2.164,0,.85,0,1.7,0,2.55C1168.326,2517.974,1168.284,2518.019,1168.134,2518.018Z"/></g></svg>