<svg xmlns="http://www.w3.org/2000/svg" xmlns:xlink="http://www.w3.org/1999/xlink" width="1000" height="803.44" viewBox="0 0 1000 803.44"><defs><style>.a{fill:none;}.b{clip-path:url(#a);}.c{opacity:0.65;}.d{clip-path:url(#c);}.e{clip-path:url(#d);}.f{fill:#dbdbdb;}.g{fill:#383838;}.h{fill:#124625;}.i{fill:#890c17;}.j{fill:#828181;}.k{fill:#b5b4b3;}.l{fill:#f0f0f1;}.m{fill:#df6116;}.n{fill:#003176;}.o{fill:#1a613a;}.p{fill:#db7815;}.q{fill:#004d94;}.r{fill:#8b0d18;}</style><clipPath id="a"><rect class="a" width="1000" height="803.44"/></clipPath><clipPath id="c"><rect class="a" width="525.949" height="519.179"/></clipPath><clipPath id="d"><rect class="a" width="418.871" height="517.697"/></clipPath></defs><g transform="translate(500 401.72)"><g class="b" transform="translate(-500 -401.72)"><g class="b"><g class="c" transform="translate(238.616 70.491)"><g class="d"><g class="e" transform="translate(50.408 1.491)"><path class="f" d="M418.533,97.671a2.784,2.784,0,0,0,1.392-3.679h0l-7.556-16.8a2.784,2.784,0,1,0-5.071,2.287h0l7.656,16.8a2.784,2.784,0,0,0,3.579,1.392h0" transform="translate(-291.371 -72.418)"/><path class="g" d="M425.342,261.113l.7-.4a2.784,2.784,0,0,0,.3-3.877l-23.464-26.944a2.784,2.784,0,0,0-3.878-.3h0a2.784,2.784,0,0,0-.3,3.877l23.464,26.944a2.783,2.783,0,0,0,3.181.7" transform="translate(-291.319 -73.303)"/><path class="h" d="M404.7,140.275l36.688,63.83a2.783,2.783,0,0,0,3.479,1.094h.3a2.784,2.784,0,0,0,.994-3.778h0l-36.687-63.83a2.784,2.784,0,1,0-4.772,2.784h0" transform="translate(-291.354 -72.766)"/><path class="f" d="M643.393,237.1l-16.8,7.556a2.784,2.784,0,0,0-1.393,3.679h0a2.784,2.784,0,0,0,3.679,1.392h0l16.8-7.556a2.783,2.783,0,0,0,1.392-3.679h0a2.783,2.783,0,0,0-3.678-1.392h0" transform="translate(-292.627 -73.348)"/><path class="g" d="M711,211l-15.908,9.147a2.784,2.784,0,0,0-.995,3.778h0a2.785,2.785,0,0,0,3.48,1.094h.2l15.908-9.147a2.784,2.784,0,0,0,.994-3.778A2.684,2.684,0,0,0,711,211.1h-.1" transform="translate(-293.024 -73.198)"/><path class="i" d="M315.9,248.49a2.784,2.784,0,0,0,1.591,3.579h0l68.8,26.049a2.912,2.912,0,0,0,3.579-1.591,2.784,2.784,0,0,0-1.591-3.579h0l-68.8-26.049a2.784,2.784,0,0,0-3.579,1.591h0" transform="translate(-290.844 -73.405)"/><path class="j" d="M270.69,230.031a2.784,2.784,0,0,0,1.988-5.17h0l-17.2-6.463a2.784,2.784,0,0,0-3.579,1.591h0a2.784,2.784,0,0,0,1.591,3.579h0Z" transform="translate(-290.475 -73.241)"/><path class="k" d="M260.976,295.76a2.784,2.784,0,0,0,.4-5.468L242.98,289a2.784,2.784,0,1,0-.4,5.469Z" transform="translate(-290.405 -73.648)"/><path class="l" d="M340.782,298.151a2.584,2.584,0,0,0,1.591-.2,2.784,2.784,0,0,0-.6-5.269h0l-18.1-2.983a2.78,2.78,0,0,0-.994,5.469h0Z" transform="translate(-290.872 -73.653)"/><path class="m" d="M571.491,179.672a2.784,2.784,0,0,0,3.579-1.591l26.048-68.8a2.783,2.783,0,0,0-5.07-2.088h0L570,175.993a2.784,2.784,0,0,0,1.59,3.579h0" transform="translate(-292.31 -72.593)"/><path class="f" d="M606.377,93.369a2.788,2.788,0,0,0,1.492-1.591l6.462-17.2A2.784,2.784,0,0,0,612.74,71h0a2.784,2.784,0,0,0-3.579,1.591l-6.562,17.3a2.784,2.784,0,0,0,1.591,3.579h0a2.784,2.784,0,0,0,2.088-.1" transform="translate(-292.497 -72.391)"/><path class="f" d="M531.167,172.677l1.193-18.294a2.785,2.785,0,0,0-2.585-2.983,2.684,2.684,0,0,0-2.883,2.485h0L525.6,172.279a2.784,2.784,0,0,0,2.585,2.983h0a2.585,2.585,0,0,0,1.292-.2,2.785,2.785,0,0,0,1.591-2.386" transform="translate(-292.055 -72.856)"/><path class="g" d="M547.187,150.862a2.882,2.882,0,0,0,1.59-.2,2.782,2.782,0,0,0,1.591-2.088l2.982-18.194a2.783,2.783,0,0,0-2.286-3.182h0a2.784,2.784,0,0,0-3.182,2.287l-2.983,18.1a2.784,2.784,0,0,0,2.287,3.182h0" transform="translate(-292.166 -72.716)"/><path class="f" d="M359.3,172.1l.895-.6a2.784,2.784,0,0,0-.1-3.877L346.673,155a2.784,2.784,0,0,0-3.878.1h0a2.784,2.784,0,0,0,.1,3.877L356.317,171.6a2.784,2.784,0,0,0,2.983.5" transform="translate(-290.996 -72.872)"/><path class="n" d="M353.51,201.707a2.784,2.784,0,0,0,2.784.3,2.586,2.586,0,0,0,.994-.8,2.784,2.784,0,0,0-.5-3.878h0L342.276,186.1a2.784,2.784,0,0,0-3.38,4.375h0Z" transform="translate(-290.973 -73.053)"/><path class="k" d="M611.7,221.185a2.752,2.752,0,0,0,3.182,4.375l.895-.6,50.408-53.589A2.784,2.784,0,0,0,662.1,167.6Z" transform="translate(-292.547 -72.945)"/><path class="j" d="M675.2,157.995a2.783,2.783,0,0,0,2.982.5l.9-.6L691.7,144.474a2.784,2.784,0,0,0-4.076-3.778L675,154.018a2.783,2.783,0,0,0,.1,3.878" transform="translate(-292.912 -72.789)"/><path class="g" d="M580.8,233.615a2.784,2.784,0,0,0,3.182,4.375l.9-.6L597.4,223.971a2.784,2.784,0,1,0-3.977-3.778Z" transform="translate(-292.369 -73.245)"/><path class="k" d="M588.47,189.181l8.153-16.5A2.785,2.785,0,0,0,595.43,169h0a2.685,2.685,0,0,0-3.679,1.193h0L583.6,186.7a2.685,2.685,0,0,0,1.193,3.679h0a2.758,2.758,0,0,0,3.679-1.293" transform="translate(-292.388 -72.955)"/><path class="k" d="M627.378,151.379a2.685,2.685,0,0,0,1.192-1.094l9.744-15.609a2.784,2.784,0,0,0-.9-3.778h0a2.784,2.784,0,0,0-3.778.895h0L623.9,147.4a2.774,2.774,0,0,0,3.48,3.977" transform="translate(-292.619 -72.735)"/><path class="f" d="M286.277,334.968l.994-.3a2.784,2.784,0,0,0-1.193-5.27l-18.394.6A2.784,2.784,0,0,0,265,332.88h0a2.783,2.783,0,0,0,2.883,2.684Z" transform="translate(-290.552 -73.882)"/><path class="h" d="M305.484,323.455l73.573-2.287,1.094-.2a2.784,2.784,0,0,0-1.193-5.27l-73.573,2.287a2.784,2.784,0,0,0-2.684,2.784h0a2.785,2.785,0,0,0,2.883,2.685" transform="translate(-290.769 -73.803)"/><path class="i" d="M512.173,95.563a2.783,2.783,0,0,0,1.591-2.585l-.6-18.393a2.786,2.786,0,0,0-5.568.2l.6,18.393a2.783,2.783,0,0,0,2.883,2.684l1.093-.2" transform="translate(-291.951 -72.397)"/><path class="g" d="M457.845,186.569h.3a2.784,2.784,0,0,0,1.492-3.38l-5.866-17.4a2.735,2.735,0,1,0-5.17,1.79l5.866,17.4a2.685,2.685,0,0,0,3.48,1.69h0" transform="translate(-291.61 -72.928)"/><path class="n" d="M489.5,207.418l.5-.2a2.784,2.784,0,0,0,1.591-3.082l-13.919-60.449a2.784,2.784,0,0,0-3.281-2.088,2.883,2.883,0,0,0-2.088,3.281l13.919,60.449a2.784,2.784,0,0,0,3.281,2.088" transform="translate(-291.747 -72.799)"/><path class="f" d="M497.027,153.045l.795-.2a2.784,2.784,0,0,0,1.591-2.883l-9.445-72.977a2.756,2.756,0,1,0-5.468.7l9.445,72.977a2.784,2.784,0,0,0,3.083,2.386" transform="translate(-291.818 -72.413)"/><path class="f" d="M582.79,531.1a2.385,2.385,0,0,0-1.591,3.082h0l5.667,15.411a2.685,2.685,0,0,0,3.381,1.491,2.385,2.385,0,0,0,1.59-3.082h0l-5.667-15.411a2.685,2.685,0,0,0-3.281-1.492h0" transform="translate(-292.375 -75.044)"/><path class="g" d="M590.489,386.5l-.7.3a2.386,2.386,0,0,0-.6,3.38l19.984,25.651a2.784,2.784,0,0,0,3.679.6h0a2.386,2.386,0,0,0,.6-3.38l-19.984-25.651a2.684,2.684,0,0,0-2.983-.9" transform="translate(-292.418 -74.21)"/><path class="h" d="M599.5,494.448l-29.23-59.157A2.684,2.684,0,0,0,566.99,434h-.2a2.386,2.386,0,0,0-1.293,3.182h0l29.231,59.157a2.783,2.783,0,0,0,3.479,1.193,2.386,2.386,0,0,0,1.292-3.281h0" transform="translate(-292.283 -74.485)"/><path class="f" d="M381.779,390.142l16.6-5.27a2.386,2.386,0,0,0,1.591-3.082h0a2.684,2.684,0,0,0-3.38-1.491h0l-16.6,5.269a2.387,2.387,0,0,0-1.69,3.082h0a2.685,2.685,0,0,0,3.281,1.491h0" transform="translate(-291.204 -74.175)"/><path class="g" d="M315.478,407.634l15.908-6.761a2.386,2.386,0,0,0,1.292-3.182h0A2.684,2.684,0,0,0,329.4,396.4h-.2l-15.908,6.761A2.387,2.387,0,0,0,312,406.441a2.684,2.684,0,0,0,3.38,1.193h.1" transform="translate(-290.821 -74.268)"/><path class="i" d="M692.906,406.414a2.387,2.387,0,0,0-1.192-3.281h0L628.778,374.6a2.781,2.781,0,0,0-1.988-.1,2.484,2.484,0,0,0-1.491,1.193,2.386,2.386,0,0,0,1.192,3.281h0l62.936,28.534a2.685,2.685,0,0,0,3.48-1.093h0" transform="translate(-292.628 -74.141)"/><path class="j" d="M734.479,426.4a2.781,2.781,0,0,0-1.988-.1A2.588,2.588,0,0,0,731,427.492a2.386,2.386,0,0,0,1.193,3.281h0l15.709,7.158a2.685,2.685,0,0,0,3.48-1.094h0a2.386,2.386,0,0,0-1.193-3.281h0Z" transform="translate(-293.238 -74.44)"/><path class="k" d="M749.382,369.3h-1.293a2.386,2.386,0,0,0,.4,4.673l17.3,2.585a2.585,2.585,0,0,0,2.982-1.989,2.486,2.486,0,0,0-2.187-2.784Z" transform="translate(-293.327 -74.112)"/><path class="l" d="M673.881,360.8a2.679,2.679,0,0,0-1.491,0,2.486,2.486,0,0,0-1.691,1.69,2.387,2.387,0,0,0,1.889,2.983h0l16.9,4.176a2.684,2.684,0,0,0,3.181-1.69,2.386,2.386,0,0,0-1.789-2.983h0Z" transform="translate(-292.891 -74.063)"/><path class="m" d="M444.9,446.2a2.883,2.883,0,0,0-1.988-.1,2.583,2.583,0,0,0-1.491,1.292L410.8,505.952a2.385,2.385,0,0,0,1.094,3.281,2.684,2.684,0,0,0,3.579-.994h.1l30.722-58.56A2.386,2.386,0,0,0,445.1,446.4h0" transform="translate(-291.391 -74.554)"/><path class="f" d="M404.445,519.7a2.584,2.584,0,0,0-1.491,1.292L395.3,535.608a2.385,2.385,0,0,0,1.193,3.28h0a2.685,2.685,0,0,0,3.48-1.093l7.656-14.616a2.386,2.386,0,0,0-1.193-3.281h0a2.785,2.785,0,0,0-1.989-.1" transform="translate(-291.301 -74.979)"/><path class="f" d="M482.583,455.888,479.8,471.995a2.485,2.485,0,0,0,2.188,2.784,2.584,2.584,0,0,0,2.982-1.988h0l2.784-16.106a2.486,2.486,0,0,0-2.187-2.784h0a2.583,2.583,0,0,0-1.292.1,2.485,2.485,0,0,0-1.79,1.889" transform="translate(-291.79 -74.599)"/><path class="g" d="M465.455,473.8a2.892,2.892,0,0,0-1.491,0,2.587,2.587,0,0,0-1.69,1.69L457.8,491.2a2.386,2.386,0,0,0,1.889,2.983h0a2.685,2.685,0,0,0,3.182-1.69l4.474-15.709a2.387,2.387,0,0,0-1.889-2.983h0" transform="translate(-291.663 -74.714)"/><path class="f" d="M645.389,470.3l-.9.5a2.287,2.287,0,0,0-.2,3.479L655.928,486.5a2.784,2.784,0,0,0,3.679.2h0a2.386,2.386,0,0,0,.2-3.48L648.173,471a2.783,2.783,0,0,0-2.784-.7" transform="translate(-292.734 -74.693)"/><path class="n" d="M653.474,444.8a2.783,2.783,0,0,0-2.684-.5,2.483,2.483,0,0,0-1.094.7,2.287,2.287,0,0,0,.1,3.48h0l12.826,11.036a2.784,2.784,0,0,0,3.678-.1,2.287,2.287,0,0,0-.1-3.48h0Z" transform="translate(-292.766 -74.544)"/><path class="k" d="M410.271,406.375a2.287,2.287,0,0,0,.2-3.48,2.784,2.784,0,0,0-2.784-.7l-.895.5-52.5,43.15a2.286,2.286,0,0,0-.1,3.48,2.784,2.784,0,0,0,3.579.2Z" transform="translate(-291.062 -74.301)"/><path class="j" d="M344.8,457.195a2.785,2.785,0,0,0-2.784-.7l-.895.5L328,467.833a2.386,2.386,0,0,0-.2,3.48,2.784,2.784,0,0,0,3.679.2L344.6,460.675a2.386,2.386,0,0,0,.2-3.48" transform="translate(-290.91 -74.614)"/><path class="g" d="M440.8,398.175a2.286,2.286,0,0,0,.2-3.48,2.785,2.785,0,0,0-2.784-.7l-.895.5L424.2,405.333a2.386,2.386,0,0,0-.2,3.48,2.784,2.784,0,0,0,3.679.2Z" transform="translate(-291.465 -74.254)"/><path class="k" d="M429.745,436.693l-9.147,13.82a2.287,2.287,0,0,0,.8,3.38h0a2.684,2.684,0,0,0,3.579-.8h0l9.147-13.82a2.287,2.287,0,0,0-.8-3.38h0a2.783,2.783,0,0,0-2.187-.2,2.579,2.579,0,0,0-1.392.994" transform="translate(-291.447 -74.494)"/><path class="k" d="M389.629,466.9a2.481,2.481,0,0,0-1.193.8L377.8,480.619a2.287,2.287,0,0,0,.5,3.38h0a2.784,2.784,0,0,0,3.679-.5h0l10.539-12.925a2.287,2.287,0,0,0-.5-3.38,2.783,2.783,0,0,0-2.485-.4" transform="translate(-291.199 -74.673)"/><path class="f" d="M728.784,332.8h-.994a2.433,2.433,0,0,0,.7,4.772l17.5.994a2.585,2.585,0,0,0,2.784-2.287h0a2.586,2.586,0,0,0-2.486-2.585Z" transform="translate(-293.21 -73.902)"/><path class="h" d="M709.178,341.376,639.284,337.4h-.994a2.433,2.433,0,0,0,.7,4.772l69.895,3.977a2.585,2.585,0,0,0,2.784-2.287h0a2.485,2.485,0,0,0-2.485-2.585" transform="translate(-292.694 -73.928)"/><path class="i" d="M493.983,525.4a2.485,2.485,0,0,0-1.789,2.188L491.1,543.793a2.647,2.647,0,0,0,5.269.3l1.094-16.206a2.486,2.486,0,0,0-2.485-2.585h-.995" transform="translate(-291.856 -75.011)"/><path class="g" d="M553.388,449.6h-.3a2.387,2.387,0,0,0-1.69,2.883l4.077,15.809a2.685,2.685,0,0,0,3.182,1.79,2.485,2.485,0,0,0,1.889-2.983l-4.076-15.809a2.585,2.585,0,0,0-3.083-1.789h0" transform="translate(-292.203 -74.574)"/><path class="n" d="M525.086,428.4h-.5a2.486,2.486,0,0,0-1.79,2.585l7.954,54.384a2.666,2.666,0,0,0,5.27-.7l-7.954-54.385a2.585,2.585,0,0,0-2.983-2.088" transform="translate(-292.039 -74.451)"/><path class="f" d="M513.285,475.6h-.8a2.485,2.485,0,0,0-1.789,2.386l2.585,65.122a2.637,2.637,0,0,0,5.27-.2l-2.585-64.924a2.585,2.585,0,0,0-2.684-2.386" transform="translate(-291.969 -74.725)"/></g></g></g><path class="g" d="M197.087,349.5a1.214,1.214,0,0,0-1.989,1.392l3.48,4.971a1.193,1.193,0,0,0,1.491.4h.2a1.193,1.193,0,0,0,.3-1.69Z" transform="translate(-1.124 -2.012)"/><path class="g" d="M181.4,329.3a1.193,1.193,0,0,0-.3,1.69l3.48,4.971a1.193,1.193,0,0,0,1.491.4h.2a1.193,1.193,0,0,0,.3-1.69l-3.48-4.971a1.193,1.193,0,0,0-1.69-.3" transform="translate(-1.043 -1.898)"/><path class="g" d="M188.4,339.3a1.193,1.193,0,0,0-.3,1.69l3.48,4.971a1.193,1.193,0,0,0,1.491.4h.2a1.193,1.193,0,0,0,.3-1.69l-3.48-4.971a1.193,1.193,0,0,0-1.69-.3" transform="translate(-1.083 -1.956)"/><path class="g" d="M160.392,390.7a1.21,1.21,0,1,0-.4,2.386l5.965,1.094h.7a1.193,1.193,0,0,0-.3-2.287Z" transform="translate(-0.917 -2.253)"/><path class="g" d="M171.994,395.187l5.965,1.094h.7a1.193,1.193,0,0,0-.3-2.287l-5.965-1.094a1.209,1.209,0,1,0-.4,2.386" transform="translate(-0.986 -2.266)"/><path class="g" d="M245.786,327.757l1.094-5.965a1.21,1.21,0,1,0-2.386-.4l-1.094,5.965a1.194,1.194,0,0,0,.994,1.392h.7a1.194,1.194,0,0,0,.7-.895" transform="translate(-1.403 -1.847)"/><path class="g" d="M240.294,345.395,239.2,351.36a1.193,1.193,0,0,0,.994,1.392h.7a1.193,1.193,0,0,0,.7-.895l1.094-5.966a1.21,1.21,0,0,0-2.386-.4" transform="translate(-1.379 -1.986)"/><path class="g" d="M243.686,339.757l1.094-5.965a1.21,1.21,0,1,0-2.386-.4L241.3,339.36a1.193,1.193,0,0,0,.994,1.392h.7a1.194,1.194,0,0,0,.7-.895" transform="translate(-1.391 -1.916)"/><path class="g" d="M160.789,358.1a1.228,1.228,0,0,0-1.293,2.088l5.071,3.281a1.193,1.193,0,0,0,1.094.1l.5-.5a1.193,1.193,0,0,0-.4-1.69Z" transform="translate(-0.916 -2.064)"/><path class="g" d="M179.7,371.6a1.193,1.193,0,0,0,.4,1.69l5.07,3.281a1.193,1.193,0,0,0,1.094.1l.5-.5a1.193,1.193,0,0,0-.4-1.69L181.29,371.2a1.193,1.193,0,0,0-1.69.4" transform="translate(-1.035 -2.14)"/><path class="g" d="M171.089,364.7a1.228,1.228,0,1,0-1.293,2.088l5.071,3.281a1.194,1.194,0,0,0,1.094.1l.5-.5a1.193,1.193,0,0,0-.4-1.69Z" transform="translate(-0.976 -2.102)"/><path class="g" d="M266.89,350.057l.5-.5,3.281-5.071a1.228,1.228,0,1,0-2.088-1.292l-3.281,5.071a1.228,1.228,0,0,0,1.491,1.79" transform="translate(-1.529 -1.976)"/><path class="g" d="M262.08,353.4l-3.281,5.071a1.193,1.193,0,0,0,1.491,1.79l.5-.5,3.281-5.071a1.228,1.228,0,0,0-2.088-1.293" transform="translate(-1.491 -2.035)"/><path class="g" d="M211.895,315.9a1.193,1.193,0,0,0-.895,1.491l1.292,5.965a1.193,1.193,0,0,0,1.491.9h.2a1.193,1.193,0,0,0,.7-1.392l-1.292-5.965a1.193,1.193,0,0,0-1.491-.895" transform="translate(-1.217 -1.822)"/><path class="g" d="M213.6,329.192l1.292,5.965a1.193,1.193,0,0,0,1.491.895h.2a1.193,1.193,0,0,0,.7-1.392l-1.292-5.965a1.23,1.23,0,1,0-2.386.6" transform="translate(-1.232 -1.89)"/><path class="g" d="M216.2,341.092l1.292,5.966a1.193,1.193,0,0,0,1.491.895h.2a1.193,1.193,0,0,0,.7-1.392l-1.292-5.966a1.23,1.23,0,1,0-2.386.6" transform="translate(-1.247 -1.959)"/><path class="g" d="M785.787,194.9a1.2,1.2,0,0,0-2.088,1.193l3.083,5.17a1.193,1.193,0,0,0,1.491.5h.2a1.194,1.194,0,0,0,.4-1.69Z" transform="translate(-4.518 -1.12)"/><path class="g" d="M771.8,173.4a1.193,1.193,0,0,0-.4,1.69l3.082,5.17a1.194,1.194,0,0,0,1.492.5h.2a1.193,1.193,0,0,0,.4-1.69l-3.082-5.17a1.193,1.193,0,0,0-1.69-.4" transform="translate(-4.447 -0.999)"/><path class="g" d="M778,183.9a1.193,1.193,0,0,0-.4,1.69l3.082,5.17a1.194,1.194,0,0,0,1.492.5h.2a1.193,1.193,0,0,0,.4-1.69l-3.082-5.17A1.194,1.194,0,0,0,778,184" transform="translate(-4.483 -1.06)"/><path class="g" d="M746.091,233.1a1.23,1.23,0,1,0-.6,2.386l5.865,1.491h.7a1.193,1.193,0,0,0-.1-2.287Z" transform="translate(-4.293 -1.344)"/><path class="g" d="M757.295,238.487l5.866,1.491h.7a1.193,1.193,0,0,0-.1-2.287l-5.866-1.491a1.23,1.23,0,0,0-.6,2.386" transform="translate(-4.362 -1.362)"/><path class="g" d="M836.086,176.857l1.491-5.866a1.23,1.23,0,1,0-2.386-.6L833.7,176.26a1.194,1.194,0,0,0,.895,1.491h.7a1.193,1.193,0,0,0,.795-.8" transform="translate(-4.808 -0.977)"/><path class="g" d="M829.191,194l-1.491,5.866a1.192,1.192,0,0,0,.895,1.491h.7a1.192,1.192,0,0,0,.795-.8l1.491-5.866a1.23,1.23,0,0,0-2.386-.6" transform="translate(-4.773 -1.114)"/><path class="g" d="M833.086,188.657l1.491-5.866a1.23,1.23,0,0,0-2.387-.6l-1.491,5.866a1.193,1.193,0,0,0,.895,1.491h.7a1.19,1.19,0,0,0,.795-.8" transform="translate(-4.79 -1.045)"/><path class="g" d="M748.989,200.7a1.243,1.243,0,0,0-1.491,1.989l4.872,3.679a1.193,1.193,0,0,0,1.094.2l.6-.4a1.192,1.192,0,0,0-.2-1.69Z" transform="translate(-4.308 -1.156)"/><path class="g" d="M766.8,215.5a1.193,1.193,0,0,0,.2,1.69l4.872,3.678a1.193,1.193,0,0,0,1.094.2l.6-.4a1.193,1.193,0,0,0-.2-1.69l-4.872-3.679a1.193,1.193,0,0,0-1.69.2" transform="translate(-4.421 -1.24)"/><path class="g" d="M758.688,208a1.243,1.243,0,0,0-1.491,1.989l4.872,3.679a1.194,1.194,0,0,0,1.094.2l.6-.4a1.193,1.193,0,0,0-.2-1.69Z" transform="translate(-4.364 -1.198)"/><path class="g" d="M855.39,200.658l.6-.4,3.68-4.872a1.243,1.243,0,0,0-1.988-1.491L854,198.769a1.193,1.193,0,0,0,1.393,1.889" transform="translate(-4.923 -1.115)"/><path class="g" d="M850.377,203.7l-3.679,4.872a1.193,1.193,0,0,0,1.392,1.889l.6-.4,3.679-4.872a1.243,1.243,0,1,0-1.988-1.491" transform="translate(-4.881 -1.172)"/><path class="g" d="M803.194,162.4a1.194,1.194,0,0,0-.995,1.392l.9,5.965a1.193,1.193,0,0,0,1.392.994h.2a1.193,1.193,0,0,0,.795-1.293l-.895-5.965a1.193,1.193,0,0,0-1.392-.994" transform="translate(-4.626 -0.937)"/><path class="g" d="M803.9,175.892l.895,5.965a1.193,1.193,0,0,0,1.393.994h.2a1.193,1.193,0,0,0,.8-1.292l-.895-5.965a1.21,1.21,0,1,0-2.387.4" transform="translate(-4.635 -1.007)"/><path class="g" d="M805.6,187.892l.9,5.965a1.192,1.192,0,0,0,1.392.994h.2a1.193,1.193,0,0,0,.8-1.292l-.9-5.965a1.21,1.21,0,1,0-2.386.4" transform="translate(-4.645 -1.076)"/><path class="g" d="M234.745,434.592a24.436,24.436,0,0,1-5.568-1.292L225.3,451.1l4.673-8.153Z" transform="translate(-1.299 -2.498)"/><path class="g" d="M239.766,489.813A107.387,107.387,0,0,1,260.347,474.9a116.791,116.791,0,0,0-9.644,7.854s-23.663,21.973-26.944,28.435-3.778,36.29-3.778,36.29l-3.281-1.293s2.486-31.616,5.866-38.477c2.585-5.369,11.533-12.428,17.2-17.9" transform="translate(-1.25 -2.738)"/><path class="g" d="M259.828,454.689c-5.568-.6-20.879-2.784-20.879-2.784-1.491-2.784-8.749-8.948-8.749-8.948a48,48,0,0,1,7.755,4.275c8.451,1.392,21.774,4.474,21.774,4.474s25.353-3.082,35.2-5.17,32.313-12.528,32.313-12.528l1.193,1.293,10.837-4.971.6,1.094a15.618,15.618,0,0,0,3.778-4.673c1.193-2.685,2.287-6.065,3.38-8.352-.8,3.778-1.889,9.048-2.486,10.34s-4.474,3.877-4.474,3.877l-10.937,4.275a17.5,17.5,0,0,1,1.69,5.866,19.374,19.374,0,0,0-3.182-5.07s-22.668,9.445-29.827,11.334-32.213,6.363-37.781,5.767" transform="translate(-1.327 -2.412)"/><path class="g" d="M92.5,455.2Z" transform="translate(-0.533 -2.625)"/><path class="g" d="M157.94,506.7c-4.772,8.65-20.68,35.3-27.64,46.928l2.585.9C147.7,528.672,156.051,513.46,159.53,506.9H157.94" transform="translate(-0.751 -2.922)"/><path class="g" d="M158.88,492.126c-.8-8.55-2.187-20.282-3.38-29.031l6.562-.9c0,8.849,0,20.183-.1,28.435Z" transform="translate(-0.897 -2.665)"/><path class="g" d="M199.9,433.3l-14.317,13.72,7.556,15.51L183,472.175l1.69,13.72h1.491l-.7-12.826,9.843-10.141-7.158-14.914Z" transform="translate(-1.055 -2.499)"/><path class="g" d="M259.135,568.935c-2.983-8.252-39.372-21.078-39.372-21.078l-3.281-1.292L196.3,540.5s57.864,19.984,57.964,32.71-31.617,69.994-38.377,82.223c-1.69-.4-8.352-2.088-9.942-2.883,0,0,12.328,11.832,17.7,15.112,2.585,1.591,10.937,5.468,11.732,6.86a9.344,9.344,0,0,1,.3,3.977c1.094-.2,1.79-.4,1.989-.7s.6-5.071-2.983-6.463a64.584,64.584,0,0,1-11.434-6.959,23.066,23.066,0,0,1-6.164-7.06c1.988-3.678,22.271-41.957,35.2-63.432,5.866-9.744,8.451-20.382,6.86-25.055" transform="translate(-1.132 -3.117)"/><path class="g" d="M177.176,580.2l22.37,7.159s-36.091,51.6-43.249,58.46S92.765,695.233,85.607,700.7a36.67,36.67,0,0,1-2.088-4.872l-7.556,16.007c-1.491,3.082-2.585,16.6-2.784,17.8s-1.392,2.386-3.679,3.082l.2.2c1.491.4,5.071-1.094,5.17-4.872a64.425,64.425,0,0,1,2.983-13.024c.6-1.392,5.568-7.457,9.048-11.533h0s62.935-47.425,69.2-52.4c10.141-7.954,49.911-66.415,49.911-66.415Z" transform="translate(-0.401 -3.345)"/><path class="g" d="M231.863,462.561l-6.959-9.744-14.118,5.468S208.5,442.378,208.3,438.6l1.094,22.867,15.112-4.474Z" transform="translate(-1.201 -2.529)"/><path class="g" d="M218.89,455.087l.7,6.064,1.889.6c-.994,8.252-4.673,14.715-13.82,23.762s-37.483,20.581-42.752,20.382a122.607,122.607,0,0,1-16.7-.994s13.621,2.188,17.2,2.386,30.623-10.638,39.571-17.3,16.7-18.691,18.692-27.64l3.977-5.17-3.082-4.275Z" transform="translate(-0.855 -2.611)"/><path class="g" d="M163.015,491.183c6.761-2.486,29.031-3.778,40.664-8.948s16.8-21.078,16.8-21.078l2.287-7.457-3.778,1.491.7,6.065s-6.562,14.914-13.422,18.99c-11.931,7.158-38.079,7.258-45.238,10.638S148.4,505,148.4,505s7.258-11.036,14.715-13.82" transform="translate(-0.856 -2.617)"/><path class="g" d="M205.2,399.291a12.227,12.227,0,0,0,1.889,3.977c1.69-5.468,9.147-11.235,14.218-15.013a65.819,65.819,0,0,0,9.147-7.656S204.4,395.115,205.2,399.291" transform="translate(-1.183 -2.195)"/><path class="g" d="M242.984,422.034c1.491-2.088-13.323-28.634-13.323-28.634a21.486,21.486,0,0,1-6.264,4.375c-3.38,1.392,15.61,22.867,19.487,24.259" transform="translate(-1.286 -2.268)"/><path class="g" d="M157.931,426.1C146.995,427.688,111,433.455,94.5,439.42c-7.954,2.883-19.487,9.346-29.429,15.112l1.491,2.784-8.053-1.094-14.615,7.656L42.6,469.347l2.585-4.176L59.4,458.907l8.55.2,1.591-1.59-3.182-3.182c15.609-7.457,47.723-19.885,88.984-24.657a203.225,203.225,0,0,1,31.716-.7s-18.294-4.574-29.23-3.082" transform="translate(-0.246 -2.454)"/><path class="g" d="M137.284,462.58l-16.4-1.59-23.862.7L82.9,464.469l.6-2.287,17.8-1.988,20.978-1.094c.994,0,10.439,2.087,10.439,2.087Z" transform="translate(-0.478 -2.647)"/><path class="g" d="M322.465,456.1l-11.632,5.567-17.8,5.866-11.135,1.79,1.093,1.591,13.621-3.38,15.808-4.872c.7-.2,7.158-4.375,7.158-4.375Z" transform="translate(-1.626 -2.63)"/><path class="g" d="M186.8,501.295l2.187,10.439-.5-11.334Z" transform="translate(-1.077 -2.886)"/><path class="g" d="M153.888,549.7c-.7,1.69-1.392,3.38-2.187,4.971l-2.386,4.872v-.6c.3,1.789.6,3.479.895,5.269a23.072,23.072,0,0,1,.3,2.685l.3,2.684-.2-.4,2.684,3.976,2.784,3.877v.3l-1.491,3.778L153.192,585c-.895,2.585-1.69,5.17-2.684,7.755h-.1l-4.176,7.059-2.187,3.48-2.187,3.479v-.1c-1.094,2.486-2.187,5.071-3.38,7.556l-1.79,3.679-1.889,3.679h-.2c.4-1.292.8-2.685,1.193-3.977l1.293-3.877c.895-2.585,1.79-5.17,2.784-7.755h.1l2.088-3.579,2.187-3.48,4.474-6.86h-.1c1.094-2.486,2.287-4.971,3.38-7.358l1.69-3.678,1.491-3.778v.3L152.1,573.86l-3.181-3.579h-.1v-.3c-.2-.895-.3-1.79-.5-2.585a23.234,23.234,0,0,1-.4-2.585c-.1-.8-.5-3.48-.6-5.27v-.5l2.784-4.574c.994-1.491,1.988-2.983,3.082-4.474Z" transform="translate(-0.776 -3.17)"/><path class="g" d="M207.9,630.04a31.9,31.9,0,0,1,1.591-3.877l1.79-3.679a39.907,39.907,0,0,1,2.088-3.579l2.386-3.38h0a41.294,41.294,0,0,0,2.784-7.755c.4-1.292.7-2.684,1.094-3.977l1.292-3.977h.1c.6-1.292,1.293-2.485,1.989-3.778l2.188-3.679,2.386-3.579c.8-1.193,1.69-2.287,2.585-3.479h.2c-.5,1.392-.994,2.684-1.591,3.977l-1.79,3.877-1.889,3.778-2.088,3.679v-.2l-1.591,3.778-1.69,3.778a41.226,41.226,0,0,0-2.883,7.754h0c-.6,1.293-1.094,2.585-1.69,3.778a39.6,39.6,0,0,1-1.988,3.579l-2.287,3.48a37.223,37.223,0,0,1-2.585,3.281Z" transform="translate(-1.199 -3.375)"/><path class="g" d="M86.5,676.5a41.133,41.133,0,0,1,2.784-3.083l2.983-2.883a39.867,39.867,0,0,1,3.082-2.685l3.38-2.386h-.1A41.171,41.171,0,0,0,103.8,659l2.287-3.381,2.486-3.281h.1l3.082-2.883,3.281-2.685,3.38-2.584,3.579-2.386v.2l-2.784,3.281-2.983,3.082-3.082,2.983-3.182,2.784h.1l-2.685,3.082-2.883,2.983a41.31,41.31,0,0,0-5.269,6.363h-.1l-2.883,2.983a40.14,40.14,0,0,1-3.082,2.685l-3.281,2.485c-1.094.8-2.287,1.591-3.48,2.286Z" transform="translate(-0.498 -3.701)"/><path class="g" d="M221.182,393.5c-.2.5-.2.5-.7.7s-2.386,4.375-2.386,4.375l.895.2c1.193-2.088,2.784-4.574,2.188-5.17" transform="translate(-1.258 -2.269)"/><path class="g" d="M224.9,391.2a.75.75,0,0,0,.8-.1c.3-.2,3.977.8,3.977.8l-.4.6c-1.889-.4-4.275-.6-4.375-1.292" transform="translate(-1.297 -2.255)"/><path class="g" d="M216.05,678.679c-1.591-.3-5.866-3.679-5.866-3.679H207.5s4.971,5.567,8.65,5.567,11.433-2.386,15.51-.5a.3.3,0,0,0,0-.2c-2.386-4.475-9.346-.3-15.609-1.293" transform="translate(-1.197 -3.892)"/><path class="g" d="M196.948,653.1c-7.159,5.368-10.539,13.72-8.352,16.106s12.527.5,15.311,2.585l3.48.5c-5.866-6.065-15.908-2.883-17.3-5.27s6.761-13.82,6.761-13.82" transform="translate(-1.084 -3.766)"/><path class="g" d="M62.288,714.047c0-1.59,2.784-6.263,2.784-6.263l-.5-2.684s-4.872,5.667-4.375,9.346,3.878,10.936,2.585,15.311h.2c4.076-2.883-.994-9.246-.8-15.61" transform="translate(-0.347 -4.066)"/><path class="g" d="M80.395,687.181c-7.854-4.276-16.9-3.978-18.1-.995-.5,1.292,4.772,11.633,3.977,15.013l.994,3.38c3.182-7.854-3.878-15.708-2.287-17.9s15.411.5,15.411.5" transform="translate(-0.359 -3.943)"/><path class="g" d="M349.1,414.716a26.354,26.354,0,0,1,1.491-4.275l.994-1.988,1.093-1.988a23.971,23.971,0,0,1,2.685-3.679l1.69-1.591.994-.7.6-.3h.895l3.182,1.392-3.48-.5h-.3l-.4.3-.7.8-1.292,1.69-2.386,3.579-2.485,3.579a42.5,42.5,0,0,1-2.685,3.48" transform="translate(-2.013 -2.308)"/><path class="g" d="M358,431.631a8.046,8.046,0,0,0,2.684-2.287,16.481,16.481,0,0,0,1.79-2.883c.3-.5.5-1.094.8-1.591l.7-1.69.7-1.69a12.186,12.186,0,0,1,.7-1.69,18.321,18.321,0,0,1,0,1.889c-.1.6-.2,1.193-.3,1.889a9.438,9.438,0,0,1-.5,1.79,15.247,15.247,0,0,1-.8,1.79,9.752,9.752,0,0,1-2.287,3.083,5.171,5.171,0,0,1-3.48,1.491" transform="translate(-2.064 -2.421)"/><path class="g" d="M360.5,423.366c3.082-5.468,5.369-5.369,5.269-5.767s-2.386,1.889-2.485,2.685-2.784,3.082-2.784,3.082" transform="translate(-2.079 -2.408)"/><path class="f" d="M489.5,639.6H317.3v8.948Z" transform="translate(-1.83 -3.688)"/><path class="f" d="M303.1,704.2H130.8v8.849Z" transform="translate(-0.754 -4.061)"/><path class="f" d="M115.19,769.3H-145.2v8.948Z" transform="translate(0.837 -4.436)"/><path class="f" d="M311.284,654.3v49.612S308.7,688.4,308.5,681.343s2.784-26.944,2.784-26.944" transform="translate(-1.779 -3.773)"/><path class="f" d="M123.884,719.5v49.612S121.3,753.6,121.1,746.543s2.784-26.944,2.784-26.944" transform="translate(-0.698 -4.149)"/><path class="f" d="M680.978,544.148V535.2H487.6Z" transform="translate(-2.812 -3.086)"/><path class="f" d="M890.279,608.648V599.8H696.9Z" transform="translate(-4.018 -3.459)"/><path class="f" d="M1073.04,673.848V664.9H907.3Z" transform="translate(-5.232 -3.834)"/><path class="f" d="M691.981,576.944c-.3,7.059-3.182,22.569-3.182,22.569V549.9s3.48,19.885,3.182,26.944" transform="translate(-3.972 -3.171)"/><path class="f" d="M489.084,593.02c-.3,12.627-2.784,40.465-2.784,40.465V544.8s3.082,35.593,2.784,48.319" transform="translate(-2.805 -3.141)"/><path class="f" d="M902.381,642.044c-.3,7.059-3.182,22.569-3.182,22.569V615.1s3.479,19.884,3.182,26.944" transform="translate(-5.185 -3.547)"/><path class="g" d="M818.7,269.881a3.785,3.785,0,0,0,1.691-.2l1.69-.8,1.69-1.094,1.789-1.193a7.939,7.939,0,0,1-1.392,1.69,9.334,9.334,0,0,1-1.89,1.292,5.95,5.95,0,0,1-2.087.7,1.49,1.49,0,0,1-1.591-.5" transform="translate(-4.721 -1.537)"/><path class="g" d="M705.1,281.231c-1.293-.895-2.486-1.889-3.679-2.883l-3.48-3.082-3.48-2.982-1.79-1.392-.895-.6-.5-.2h-.2l-3.38,1.491,2.883-2.287h1.591l1.193.5,2.088,1.193a26.171,26.171,0,0,1,3.678,2.983l1.69,1.69,1.492,1.79A29.458,29.458,0,0,1,705,281.33" transform="translate(-3.966 -1.553)"/><path class="g" d="M700.841,287.168a4.275,4.275,0,0,1-3.182.5,7.859,7.859,0,0,1-2.983-1.193l-1.292-.994-1.094-1.094-.9-1.292-.7-1.392,1.292.9,1.193.895,1.193.9,1.192.8a15.094,15.094,0,0,0,2.486,1.392,7.154,7.154,0,0,0,2.883.6" transform="translate(-3.983 -1.624)"/><path class="g" d="M695.564,282.288c-4.474-2.685-6.164-1.69-6.264-1.989s2.485.4,2.983.9,3.281,1.094,3.281,1.094" transform="translate(-3.975 -1.616)"/><path class="g" d="M820.192,277.4,819,278.792l.7,5.369,2.486-.994Z" transform="translate(-4.723 -1.6)"/><path class="g" d="M825.867,506.12a22.365,22.365,0,0,1-.795-2.386c-.9-3.182-4.872-10.837-4.872-10.837l1.79-.6,5.667,13.224.994,2.187,2.088,4.375,8.352,17.5c2.783,5.866,5.567,11.732,8.451,17.5s5.865,11.334,8.947,16.9a8.887,8.887,0,0,1,1.69,0l1.89.4a7.883,7.883,0,0,1,1.789.994,9.146,9.146,0,0,1,1.79,1.591v.3a4.866,4.866,0,0,1-1.89.3,6.173,6.173,0,0,1-1.889-.3,12.436,12.436,0,0,1-1.789-.9,19.825,19.825,0,0,1-1.79-1.292l-.3-.2h-.2q-4.375-8.65-8.948-17.3l-9.247-17.1c-3.081-5.767-5.965-11.533-8.748-17.5l-1.989-4.474-.994-2.287" transform="translate(-4.729 -2.839)"/><path class="g" d="M857.83,576.336c1.093-1.591,1.59-8.749,1.59-8.749l2.287-2.187s.895,10.042-2.187,13.224-11.633,7.059-13.422,12.428l-.2-.2c-2.088-6.662,7.557-8.053,11.832-14.516" transform="translate(-4.876 -3.26)"/><path class="g" d="M871.044,578.859c.9-.994,1.591-5.667,1.591-5.667l1.889-1.292s.2,6.761-2.286,8.551-9.147,3.877-10.737,7.258v-.2c-1.193-4.573,6.064-4.772,9.644-8.75" transform="translate(-4.968 -3.298)"/><path class="g" d="M875.994,564.8s3.479,1.79,2.783,4.971,2.685,4.375,4.076,5.17-1.689.6-1.689.6a7.059,7.059,0,0,1-4.076-5.965c-.1-4.276-2.287-4.474-2.287-4.474Z" transform="translate(-5.045 -3.257)"/><path class="g" d="M968.833,512.649c1.094-1.193,2.287-7.159,2.287-7.159l2.187-1.591s-.3,8.551-3.28,10.837-10.539,4.673-12.627,8.948v-.2c-.994-5.866,7.158-5.965,11.533-10.937" transform="translate(-5.521 -2.906)"/><path class="g" d="M980.444,517.37c.895-.7,2.287-4.475,2.287-4.475l1.789-.7s-.994,5.667-3.28,6.761-8.252,1.69-10.142,4.275H971c-.3-3.978,5.865-2.983,9.444-5.667" transform="translate(-5.599 -2.953)"/><path class="g" d="M986.994,506.5s2.585,2.088,1.491,4.574,1.491,4.076,2.585,4.971-1.491.2-1.491.2a5.965,5.965,0,0,1-2.387-5.667C987.789,507,986,506.5,986,506.5Z" transform="translate(-5.686 -2.921)"/><path class="g" d="M716.791,297.8c17.8,6.86,17.7,5.07,42.454,17.7,3.778,1.989.5,1.591.5,1.591s-17-10.241-23.066-9.744c-4.275.1-27.342-10.738-19.984-9.544" transform="translate(-4.124 -1.717)"/><path class="g" d="M868.425,555.616a17.411,17.411,0,0,1-1.491-3.579q-.5-2.088-.994-4.076c-.4-1.392-.7-2.685-1.193-4.077s-.994-2.585-1.491-3.977h0a50.6,50.6,0,0,1-1.193-8.352q-.148-2.087-.3-4.176c-.1-1.392-.3-2.784-.5-4.175h0c-.4-1.393-.7-2.784-1.093-4.176l-1.293-4.176-1.491-4.076c-.5-1.392-1.094-2.685-1.69-4.077h-.2c.2,1.492.5,2.883.7,4.275s.6,2.883.9,4.275.7,2.784,1.094,4.175.795,2.784,1.292,4.176v-.2l.795,4.176q.448,2.089.895,4.176a50.594,50.594,0,0,1,1.293,8.351h0q.448,2.088.895,4.176c.3,1.392.8,2.685,1.193,4.076s.9,2.685,1.393,3.978,1.69,3.877,1.69,3.877Z" transform="translate(-4.933 -2.922)"/><path class="g" d="M914.752,338.349C902.524,330.594,890.195,311.6,872.2,313.2c13.323-5.27,28.137,15.51,42.454,23.265Z" transform="translate(-5.029 -1.801)"/><path class="g" d="M822.3,286.065l4.772,1.69L830.254,280l-2.685,8.65-5.07-1.989Z" transform="translate(-4.742 -1.615)"/><path class="g" d="M821.035,286.385l-3.877,4.574L809.8,283.9l7.258,8.55,4.176-5.468Z" transform="translate(-4.67 -1.637)"/><path class="g" d="M830,312.8c.795,3.48,1.591,6.96,2.287,10.439l2.187,10.439,2.088,10.439,1,5.269.994,5.27-1.193-5.27-1.094-5.269-2.187-10.439-2.088-10.439c-.7-3.48-1.392-6.96-1.988-10.439" transform="translate(-4.786 -1.804)"/><path class="g" d="M824.1,300.8c.795,3.479,1.59,6.959,2.286,10.439l2.188,10.439,2.088,10.44.994,5.269.994,5.27-1.192-5.27-1.094-5.269-2.187-10.44-2.088-10.439c-.7-3.48-1.393-6.96-1.988-10.439" transform="translate(-4.753 -1.734)"/><path class="g" d="M888.408,418.833c1.889-24.359-10.639-39.571-16.008-46.033,5.865,13.223,15.908,30.324,15.013,45.635l1,.4" transform="translate(-5.031 -2.15)"/><path class="g" d="M864.8,444.073l24.26-4.772-21.277,6.263Z" transform="translate(-4.987 -2.533)"/><path class="g" d="M715.75,286.48l-.4.5a33.27,33.27,0,0,0-2.784,4.772,23.3,23.3,0,0,1,.795-2.386l.4-1.69s-6.86-3.38-6.661-3.679l.4-.895,7.458,2.883.7-1.591L774.012,300.8l17.8-13.422a11.632,11.632,0,0,1,8.153-2.287l1.59.2a16.9,16.9,0,0,0-8.152,2.883c-4.573,3.281-16.9,14.615-19.189,16.7Z" transform="translate(-4.078 -1.632)"/><path class="g" d="M806.2,345.1l11.334,19.487c1.989,3.48.8,15.311.8,15.311s21.674,9.346,29.131,3.977c0,0-9.445,2.883-27.143-4.971,0,0,.3-9.843-.994-13.422S806.1,345,806.1,345" transform="translate(-4.649 -1.989)"/><path class="g" d="M810.086,358.953h0c-2.883-5.667-9.544-18.791-10.539-20.183s-6.562-8.352-8.749-13.124c-.8-1.79.4-8.65.4-8.65l1.988-.6s-1.192,7.656-.4,9.843,7.258,11.633,8.65,13.919,8.649,18.89,8.649,18.89" transform="translate(-4.559 -1.824)"/><path class="g" d="M864.553,353.618h0c.8-5.965-.895-19.487-1.59-22.967.4-7.755,1.988-12.328.895-18-.4-1.989-5.171-7.656-5.171-7.656l-2.187.6s5.27,6.264,5.767,8.749-.2,14.516-.2,17.4,2.485,21.973,2.485,21.973" transform="translate(-4.939 -1.759)"/><path class="g" d="M876.574,486.422c-4.772-2.187-5.368-19.686-3.381-30.623,1.094.1.8,1.492,1.89,1.591-.6,4.275-1.89,22.867.8,25.95s46.729,9.445,51.2,9.743,19.983,2.188,28.335,8.65a57.9,57.9,0,0,0-7.158-3.181c-10.341-3.778-30.225-4.872-35.892-5.071s-28.635-3.679-35.693-6.96" transform="translate(-5.029 -2.628)"/><path class="g" d="M829.059,233.281c3.281,2.585,5.369,5.369,7.756,13.621-1.492,5.866,2.981,18.592-1.592,21.277s-5.866,4.474-5.866,4.474l11.633-4.275s-2.187-2.486,1.193-8.65c1.69-3.082-4.176-9.545-2.884-16.007s-6.164-11.533-7.059-11.931A26.347,26.347,0,0,0,821.9,230a18.788,18.788,0,0,1,7.158,3.38" transform="translate(-4.74 -1.326)"/><path class="g" d="M810.5,244.29c-.1-1.69,12.329-2.585,12.428-.895-6.264,6.562-1.094,15.013-2.983,23.464-6.065.895-11.136-19.189-9.545-22.569" transform="translate(-4.671 -1.398)"/><path class="g" d="M805.684,450.329c-4.475-16.306,4.573-53.092,9.942-63.929-.4.895-4.077,4.176-5.269,8.849-4.673,19.586-10.937,48.22-4.971,59.853,1.889,0,14.317-7.556,14.317-7.556-5.667,1.79-13.223,3.579-14.118,2.883" transform="translate(-4.63 -2.228)"/><path class="g" d="M805.469,240.634l-1.591.2c-.4,0-.6-1.292-.6-1.292,0-4.275,6.462-7.457,12.427-10.241-11.434.994-14.615,7.059-15.509,12.229a32.992,32.992,0,0,1,4.175-.3c.4,0,3.48-.3,4.375-1.392-1.193.8-2.784.6-3.281.7" transform="translate(-4.614 -1.322)"/><path class="g" d="M772.5,318.568a21.582,21.582,0,0,1,3.479-2.088l3.679-1.591,3.877-1.193a21.289,21.289,0,0,1,4.077-.7,21.238,21.238,0,0,1-3.48,2.088l-3.678,1.591-3.878,1.193a21.476,21.476,0,0,1-4.076.7" transform="translate(-4.454 -1.805)"/><path class="g" d="M900.661,466.375a7.346,7.346,0,0,1-2.286-1.889,8.243,8.243,0,0,1-1.492-2.685,14.3,14.3,0,0,1-.5-2.982,25.144,25.144,0,0,0-.4-2.883,24.636,24.636,0,0,1-.5-2.883l-.5-2.883-.4-2.883-.2-1.392c-.1-.4-.2-.994-.5-1.193h0c.3,0,.5.3.7.5l.4.7a11.046,11.046,0,0,1,.6,1.392,20.012,20.012,0,0,1,.7,2.883,26.328,26.328,0,0,1,.3,2.982,21.11,21.11,0,0,1,0,2.982,11.142,11.142,0,0,0,.1,2.884,9.854,9.854,0,0,0,1.094,2.685,28.752,28.752,0,0,0,2.884,4.871Z" transform="translate(-5.155 -2.564)"/><path class="g" d="M874.272,365.471a7.361,7.361,0,0,1-2.187-2.088,8.337,8.337,0,0,1-1.292-2.784,14.3,14.3,0,0,1-.3-2.983,29.834,29.834,0,0,0-.1-2.982c-.1-.994-.2-1.889-.3-2.883l-.2-2.883v-2.883c0-.5-.1-.994-.1-1.392a2,2,0,0,0-.4-1.292h0c.3,0,.5.3.6.5l.4.7a10.994,10.994,0,0,1,.5,1.392,20.013,20.013,0,0,1,.5,2.983,26.44,26.44,0,0,1,.1,2.983,21.014,21.014,0,0,1-.2,2.983,11.244,11.244,0,0,0-.2,2.883,9.877,9.877,0,0,0,.795,2.685,28.653,28.653,0,0,0,2.486,5.07Z" transform="translate(-5.013 -1.98)"/><path class="g" d="M928.3,478.1c3.679-.895,20.382,3.281,20.382,3.281s13.224,9.743,14.814,10.638,16.6,9.744,17.1,9.445-7.059-1.889-7.557-1.889-7.059-4.275-7.059-4.275l-18.095-11.632S931.979,478,928.3,478.2" transform="translate(-5.353 -2.756)"/><path class="g" d="M817.119,481.973h-.1c-1.989-.6-13.223-10.34-12.229-14.516a61.326,61.326,0,0,1,2.188-7.357,27.023,27.023,0,0,0-3.381,6.959c-1.491,3.38,2.088,7.457,5.568,11.334a9.941,9.941,0,0,0,8.053,3.679" transform="translate(-4.632 -2.653)"/><path class="g" d="M926.276,331.309c-1.392,2.287-5.269,5.667-5.269,5.667a59.776,59.776,0,0,0,4.374-7.954l-39.869-35.594c-1.59-1.392-28.633-7.556-28.633-7.556a52.765,52.765,0,0,0-3.58-4.673c10.142,2.685,30.125,8.053,32.611,9.545s42.056,36.786,42.056,36.786l-.5,1.392,15.709,18.692s.1,5.17-.2,5.766c-2.088-8.948-3.68-8.849-5.369-10.24Z" transform="translate(-4.92 -1.622)"/><path class="g" d="M844.261,292c-.6,5.965-1.591,11.931-2.685,17.8s-2.486,11.732-4.176,17.6c.6-5.965,1.591-11.931,2.685-17.8s2.485-11.732,4.176-17.6" transform="translate(-4.83 -1.684)"/><path class="g" d="M806.2,300.2c4.574,7.954,8.75,16.107,12.826,24.359s7.954,16.5,11.533,24.955c-4.573-7.954-8.749-16.106-12.826-24.358s-7.954-16.5-11.533-24.956" transform="translate(-4.649 -1.731)"/><path class="o" d="M490.7,307.449a44.933,44.933,0,0,0,13.82,8.65,43.548,43.548,0,0,1,0-17.4,44.938,44.938,0,0,0-13.82,8.65" transform="translate(-2.83 -1.722)"/><path class="p" d="M538.795,307.45a49.521,49.521,0,0,1-.9,8.65,44.938,44.938,0,0,0,13.82-8.65,44.837,44.837,0,0,0-13.82-8.65,49.516,49.516,0,0,1,.9,8.65" transform="translate(-3.102 -1.723)"/><path class="q" d="M512.5,290.72a43.647,43.647,0,0,1,17.4,0,44.857,44.857,0,0,0-8.65-13.82,44.728,44.728,0,0,0-8.65,13.82" transform="translate(-2.955 -1.597)"/><path class="i" d="M521.149,337.92a44.844,44.844,0,0,0,8.65-13.82,43.647,43.647,0,0,1-17.4,0,44.846,44.846,0,0,0,8.65,13.82" transform="translate(-2.955 -1.869)"/><path class="i" d="M531.777,296.792a41.263,41.263,0,0,0-21.177,0l10.539,10.539,10.539-10.539" transform="translate(-2.944 -1.704)"/><path class="q" d="M521.139,307.5,510.6,318.039h0a41.263,41.263,0,0,0,21.177,0L521.238,307.5" transform="translate(-2.944 -1.773)"/><path class="o" d="M531.839,317.977a41.274,41.274,0,0,0,0-21.177L521.3,307.339l10.539,10.539" transform="translate(-3.006 -1.712)"/><path class="p" d="M510.592,296.8a44.755,44.755,0,0,0-1.392,10.539,45.248,45.248,0,0,0,1.392,10.539l10.539-10.539L510.592,296.8" transform="translate(-2.936 -1.712)"/><path class="q" d="M555.325,311.5a50.306,50.306,0,0,1-19.089,11.036A50.311,50.311,0,0,1,525.2,341.625a43.348,43.348,0,0,0,39.67,9.545h0a43.448,43.448,0,0,0-9.545-39.67" transform="translate(-3.028 -1.796)"/><path class="p" d="M516.962,341.626a50.3,50.3,0,0,1-11.036-18.89h-.1A50.413,50.413,0,0,1,486.737,311.7a43.449,43.449,0,0,0-9.544,39.67h.2a43.348,43.348,0,0,0,39.471-9.545" transform="translate(-2.744 -1.797)"/><path class="o" d="M564.97,263.691v-.2a43.448,43.448,0,0,0-39.67,9.544,50.315,50.315,0,0,1,11.036,19.089h.1a50.307,50.307,0,0,1,18.89,11.036,43.447,43.447,0,0,0,9.545-39.471" transform="translate(-3.029 -1.512)"/><path class="r" d="M477.491,263.493h-.2a43.448,43.448,0,0,0,9.545,39.67,50.306,50.306,0,0,1,19.089-11.036h0a50.315,50.315,0,0,1,11.036-18.89,43.448,43.448,0,0,0-39.471-9.545" transform="translate(-2.744 -1.513)"/></g></g></g></svg>