<svg xmlns="http://www.w3.org/2000/svg" xmlns:xlink="http://www.w3.org/1999/xlink" width="50.001" height="50" viewBox="0 0 50.001 50"><defs><style>.a{fill:#3c3c3b;}.b{opacity:0;}.c{fill:url(#a);}.d{fill:url(#b);}.e{fill:url(#c);}</style><radialGradient id="a" cx="-0.4" cy="1.441" r="3.306" gradientUnits="objectBoundingBox"><stop offset="0" stop-color="#ffd678"/><stop offset="0.246" stop-color="#f2a555"/><stop offset="0.379" stop-color="#eb5e3e"/><stop offset="0.7" stop-color="#c33187"/><stop offset="0.954" stop-color="#6765ac"/><stop offset="0.985" stop-color="#5c6cb1"/></radialGradient><radialGradient id="b" cx="0.117" cy="0.884" r="1.365" gradientTransform="translate(-0.016) scale(1.032 1)" xlink:href="#a"/><radialGradient id="c" cx="0.307" cy="0.7" r="0.71" xlink:href="#a"/></defs><g transform="translate(-1319 -1254)"><g transform="translate(-3806.57 556.999)"><circle class="a" cx="5.37" cy="5.37" r="5.37" transform="translate(5145.206 716.519)"/><path class="a" d="M5177.169,728.692h-12.454a6.4,6.4,0,0,0-6.375,6.375v13.271a6.4,6.4,0,0,0,6.375,6.375h12.454a6.4,6.4,0,0,0,6.375-6.375V735.067a6.4,6.4,0,0,0-6.375-6.375Zm-6.181,21.094a8.2,8.2,0,1,1,8.2-8.2A8.2,8.2,0,0,1,5170.989,749.786Zm8.333-14.588a1.942,1.942,0,1,1,1.942-1.942A1.942,1.942,0,0,1,5179.322,735.2Z" transform="translate(-20.373 -19.702)"/><path class="a" d="M5150.57,697a25,25,0,1,0,25,25A25,25,0,0,0,5150.57,697Zm14.892,31.635a8.69,8.69,0,0,1-8.665,8.665h-12.455a8.69,8.69,0,0,1-8.664-8.665V715.365a8.69,8.69,0,0,1,8.664-8.665H5156.8a8.69,8.69,0,0,1,8.665,8.665Z"/></g><g class="b" transform="translate(-410.659 -1249.507)"><circle class="c" cx="5.37" cy="5.37" r="5.37" transform="translate(1749.295 2523.025)"/><path class="d" d="M1760.886,2515.5h-12.454a6.4,6.4,0,0,0-6.375,6.375v13.271a6.4,6.4,0,0,0,6.375,6.375h12.454a6.4,6.4,0,0,0,6.375-6.375v-13.271a6.4,6.4,0,0,0-6.375-6.375Zm-6.181,21.093a8.2,8.2,0,1,1,8.2-8.2A8.2,8.2,0,0,1,1754.7,2536.59Zm8.333-14.588a1.942,1.942,0,1,1,1.942-1.942A1.941,1.941,0,0,1,1763.038,2522Z"/><path class="e" d="M1754.659,2503.507a25,25,0,1,0,25,25A25,25,0,0,0,1754.659,2503.507Zm14.891,31.636a8.69,8.69,0,0,1-8.664,8.664h-12.454a8.69,8.69,0,0,1-8.665-8.664v-13.271a8.69,8.69,0,0,1,8.665-8.665h12.454a8.69,8.69,0,0,1,8.664,8.665Z"/></g></g></svg>