<svg xmlns="http://www.w3.org/2000/svg" width="50" height="50" viewBox="0 0 50 50"><defs><style>.a{fill:#3c3c3b;}.b{fill:#0070a8;opacity:0;}</style></defs><g transform="translate(-3815.744 -632.502)"><path class="a" d="M4258.245,697a25,25,0,1,0,25,25A25,25,0,0,0,4258.245,697Zm-7.458,38.476h-5.6v-18h5.6Zm-2.8-20.465a3.244,3.244,0,1,1,3.242-3.245A3.245,3.245,0,0,1,4247.99,715.012Zm23.754,20.465h-5.592v-8.755c0-2.088-.038-4.773-2.907-4.773-2.912,0-3.359,2.274-3.359,4.622v8.906h-5.59v-18h5.367v2.46h.074a5.879,5.879,0,0,1,5.294-2.908c5.667,0,6.712,3.729,6.712,8.576Z" transform="translate(-417.5 -64.499)"/><path class="b" d="M862.835,2503.507a25,25,0,1,0,25,25A25,25,0,0,0,862.835,2503.507Zm-7.458,38.477h-5.6v-18h5.6Zm-2.8-20.465a3.245,3.245,0,1,1,3.242-3.245A3.245,3.245,0,0,1,852.581,2521.519Zm23.754,20.465h-5.591v-8.756c0-2.087-.039-4.773-2.908-4.773-2.911,0-3.358,2.274-3.358,4.622v8.907h-5.591v-18h5.367v2.46h.075a5.878,5.878,0,0,1,5.294-2.908c5.666,0,6.712,3.729,6.712,8.577Z" transform="translate(2977.909 -1871.005)"/></g></svg>