<svg xmlns="http://www.w3.org/2000/svg" width="50" height="50" viewBox="0 0 50 50"><defs><style>.a{fill:#3c3c3b;}.b{fill:#1da1f2;opacity:0;}</style></defs><g transform="translate(-3840.244 -591.501)"><path class="a" d="M3812.082,697a25,25,0,1,0,25,25A25,25,0,0,0,3812.082,697Zm12.525,18.576q.019.415.019.836c0,8.54-6.5,18.388-18.388,18.388a18.292,18.292,0,0,1-9.906-2.9,13.13,13.13,0,0,0,1.542.09,12.966,12.966,0,0,0,8.026-2.766,6.47,6.47,0,0,1-6.037-4.488,6.481,6.481,0,0,0,2.918-.111,6.467,6.467,0,0,1-5.184-6.337c0-.027,0-.054,0-.081a6.434,6.434,0,0,0,2.927.808,6.47,6.47,0,0,1-2-8.628,18.347,18.347,0,0,0,13.32,6.753,6.467,6.467,0,0,1,11.013-5.895,12.937,12.937,0,0,0,4.1-1.568,6.479,6.479,0,0,1-2.842,3.576,12.912,12.912,0,0,0,3.712-1.018A13.137,13.137,0,0,1,3824.607,715.577Z" transform="translate(53.162 -105.5)"/><path class="b" d="M1704.659,2418.941a25,25,0,1,0,25,25A25,25,0,0,0,1704.659,2418.941Zm12.525,18.576c.012.277.019.556.019.836,0,8.54-6.5,18.388-18.388,18.388a18.289,18.289,0,0,1-9.906-2.9,13.058,13.058,0,0,0,9.568-2.676,6.471,6.471,0,0,1-6.038-4.488,6.473,6.473,0,0,0,2.919-.111,6.467,6.467,0,0,1-5.184-6.337c0-.027,0-.054,0-.081a6.426,6.426,0,0,0,2.927.808,6.469,6.469,0,0,1-2-8.628,18.348,18.348,0,0,0,13.32,6.753,6.467,6.467,0,0,1,11.013-5.9,12.942,12.942,0,0,0,4.1-1.568,6.48,6.48,0,0,1-2.841,3.575,12.92,12.92,0,0,0,3.712-1.017A13.138,13.138,0,0,1,1717.184,2437.517Z" transform="translate(2160.585 -1827.44)"/></g></svg>