<svg xmlns="http://www.w3.org/2000/svg" width="50" height="50" viewBox="0 0 50 50"><defs><style>.a{fill:#3c3c3b;}.b{opacity:0;}.c{fill:red;}</style></defs><g transform="translate(-1215.549 -1253.566)"><g transform="translate(-3612.579 556.565)"><path class="a" d="M4853.128,697a25,25,0,1,0,25,25A25,25,0,0,0,4853.128,697Zm15.737,26.146c-.048,3.546-.372,7.109-1.824,8.426-.561.508-1.093.827-3.224,1.025-2.666.247-6.276.282-9,.287q-1.689,0-3.379,0c-2.729,0-6.34-.039-9.005-.287-2.13-.2-2.663-.517-3.223-1.025-1.465-1.328-1.782-4.942-1.826-8.518q-.012-1.008,0-2.017c.04-3.605.349-7.27,1.827-8.609.561-.508,1.093-.827,3.223-1.025,2.666-.248,6.276-.283,9.005-.287q1.689,0,3.379,0c2.729,0,6.339.039,9,.287,2.13.2,2.663.517,3.224,1.025,1.452,1.317,1.776,4.88,1.824,8.426C4868.875,721.618,4868.875,722.383,4868.865,723.147Z"/><path class="a" d="M4886.048,760.458l7.947-4.817-7.947-4.528Z" transform="translate(-36.008 -33.641)"/></g><g class="b" transform="translate(-216.834 -1249.941)"><path class="c" d="M1457.384,2503.507a25,25,0,1,0,25,25A25,25,0,0,0,1457.384,2503.507Zm15.737,26.146c-.048,3.546-.372,7.11-1.824,8.426-.56.508-1.093.827-3.223,1.025-2.666.248-6.276.283-9.005.287q-1.69,0-3.379,0c-2.73,0-6.34-.039-9.006-.287-2.13-.2-2.663-.517-3.223-1.025-1.465-1.328-1.782-4.942-1.825-8.518-.009-.671-.009-1.345,0-2.017.04-3.6.35-7.27,1.827-8.609.56-.508,1.093-.827,3.223-1.025,2.666-.248,6.276-.283,9.006-.287q1.689,0,3.379,0c2.729,0,6.339.039,9.005.287,2.13.2,2.663.517,3.223,1.025,1.452,1.317,1.776,4.88,1.824,8.426C1473.132,2528.124,1473.132,2528.89,1473.121,2529.653Z"/><path class="c" d="M1454.3,2533.323l7.947-4.816-7.947-4.528Z"/></g></g></svg>